<?xml version="1.0" encoding="utf-8"?>
<!-- Generator: Adobe Illustrator 16.0.4, SVG Export Plug-In . SVG Version: 6.00 Build 0)  -->
<!DOCTYPE svg PUBLIC "-//W3C//DTD SVG 1.1//EN" "http://www.w3.org/Graphics/SVG/1.1/DTD/svg11.dtd">
<svg version="1.1" id="Layer_1" xmlns="http://www.w3.org/2000/svg" xmlns:xlink="http://www.w3.org/1999/xlink" x="0px" y="0px"
	 width="480px" height="480px" viewBox="0 0 480 480" enable-background="new 0 0 480 480" xml:space="preserve">
<g opacity="0.1">
	<path fill-rule="evenodd" clip-rule="evenodd" d="M280.052,71.984c-1.145,3.016-3.246,3.685-5.869,3.603
		c-3.016-0.095-6.035-0.011-9.055-0.022c-3.275-0.013-5.033-1.753-5.053-4.991c-0.014-2.029-0.009-4.059-0.016-6.088
		c0-0.101-0.039-0.201-0.061-0.302c-20.076-10.439-21.121-34.495,0.074-46.125c0-2.777-0.007-5.63,0.002-8.483
		c0.01-3.355,1.758-5.091,5.107-5.094c5.421-0.005,9.732,2.877,11.803,7.889c0.137,0.331,0.281,0.659,0.439,1.026
		c1.729,0,3.436,0,5.236,0c0.209-0.508,0.412-1.03,0.637-1.542c2.131-4.854,7.199-7.844,12.469-7.359
		c2.513,0.231,4.211,2.002,4.244,4.534c0.04,3.014,0.01,6.029,0.01,9.003c20.051,10.285,21.271,34.515,0.002,46.167
		c0,2.11,0.01,4.288-0.002,6.464c-0.017,3.04-1.805,4.868-4.844,4.896c-3.227,0.03-6.455-0.05-9.68,0.02
		C283.001,75.637,281.136,74.791,280.052,71.984z M273.458,17.993c0.058-2.388-0.362-4.765-2.19-6.637
		c-1.853-1.898-4.085-2.681-6.813-2.367c0,4.051,0,7.947,0,11.903c-0.508,0.253-0.969,0.481-1.428,0.711
		c-3.619,1.817-6.854,4.134-9.46,7.271c-5.095,6.132-6.075,13.938-2.542,20.688c2.368,4.525,6.016,7.781,10.42,10.249
		c0.986,0.553,1.994,1.064,3.059,1.63c0,3.219,0,6.377,0,9.629c3.734,0,7.346,0,11.164,0c0-2.305,0-4.508,0-6.673
		c3.001,0,5.794,0,8.753,0c0,2.232,0,4.394,0,6.642c3.82,0,7.472,0,11.221,0c0-3.308,0-6.476,0-9.598
		c20.888-9.308,20.378-31.793-0.046-40.647c0-3.869,0-7.804,0-11.815c-1.897-0.227-3.531,0.114-5.055,1.001
		c-3.14,1.83-3.962,4.853-3.975,8.015C282.117,17.993,277.874,17.993,273.458,17.993z"/>
	<path fill-rule="evenodd" clip-rule="evenodd" d="M280.144,37.842c3.722-0.114,7.107,0.85,10.017,3.225
		c5.173,4.223,5.229,11.235,0.146,15.567c-5.342,4.554-15.084,4.586-20.445,0.068c-5.23-4.407-5.131-11.503,0.22-15.765
		C272.796,38.775,275.837,37.839,280.144,37.842z M280.11,40.012c-3.199-0.144-6.117,0.618-8.644,2.59
		c-4.407,3.44-4.37,9.247,0.052,12.663c4.463,3.449,12.32,3.516,16.851,0.143c4.745-3.532,4.729-9.536-0.056-13.036
		C285.869,40.583,283.089,39.888,280.11,40.012z"/>
	<path fill-rule="evenodd" clip-rule="evenodd" d="M286.633,33.397c-0.012,1.205-1.005,2.184-2.186,2.155
		c-1.165-0.028-2.179-1.07-2.167-2.227c0.014-1.178,1.025-2.139,2.232-2.121C285.759,31.224,286.646,32.14,286.633,33.397z"/>
	<path fill-rule="evenodd" clip-rule="evenodd" d="M275.611,35.553c-1.188,0.009-2.153-0.967-2.159-2.181
		c-0.006-1.254,0.889-2.157,2.141-2.159c1.219-0.003,2.2,0.95,2.203,2.138C277.8,34.51,276.772,35.545,275.611,35.553z"/>
	<path fill-rule="evenodd" clip-rule="evenodd" d="M275.55,51.065c-1.242-0.034-2.123-0.965-2.1-2.218
		c0.021-1.209,1.018-2.169,2.205-2.127c1.177,0.042,2.17,1.08,2.146,2.243C277.776,50.137,276.747,51.098,275.55,51.065z"/>
	<path fill-rule="evenodd" clip-rule="evenodd" d="M286.634,48.891c0.006,1.244-0.901,2.164-2.141,2.169
		c-1.206,0.005-2.201-0.959-2.207-2.141c-0.006-1.162,1.014-2.188,2.182-2.197C285.665,46.713,286.626,47.675,286.634,48.891z"/>
</g>
<g opacity="0.1">
	<path fill-rule="evenodd" clip-rule="evenodd" d="M119.949,71.984c-1.145,3.016-3.246,3.685-5.869,3.603
		c-3.016-0.095-6.035-0.011-9.055-0.022c-3.275-0.013-5.033-1.753-5.053-4.991c-0.014-2.029-0.009-4.059-0.016-6.088
		c0-0.101-0.039-0.201-0.061-0.302C79.82,53.744,78.775,29.688,99.971,18.059c0-2.777-0.007-5.63,0.002-8.483
		c0.01-3.355,1.758-5.091,5.107-5.094c5.421-0.005,9.732,2.877,11.803,7.889c0.137,0.331,0.281,0.659,0.439,1.026
		c1.729,0,3.436,0,5.236,0c0.209-0.508,0.412-1.03,0.637-1.542c2.131-4.854,7.199-7.844,12.469-7.359
		c2.513,0.231,4.211,2.002,4.244,4.534c0.04,3.014,0.01,6.029,0.01,9.003c20.051,10.285,21.271,34.515,0.002,46.167
		c0,2.11,0.01,4.288-0.002,6.464c-0.017,3.04-1.805,4.868-4.844,4.896c-3.227,0.03-6.455-0.05-9.68,0.02
		C122.898,75.637,121.033,74.791,119.949,71.984z M113.355,17.993c0.058-2.388-0.362-4.765-2.19-6.637
		c-1.853-1.898-4.085-2.681-6.813-2.367c0,4.051,0,7.947,0,11.903c-0.508,0.253-0.969,0.481-1.428,0.711
		c-3.619,1.817-6.854,4.134-9.46,7.271c-5.095,6.132-6.075,13.938-2.542,20.688c2.368,4.525,6.016,7.781,10.42,10.249
		c0.986,0.553,1.994,1.064,3.059,1.63c0,3.219,0,6.377,0,9.629c3.734,0,7.346,0,11.164,0c0-2.305,0-4.508,0-6.673
		c3.001,0,5.794,0,8.753,0c0,2.232,0,4.394,0,6.642c3.82,0,7.472,0,11.221,0c0-3.308,0-6.476,0-9.598
		c20.888-9.308,20.378-31.793-0.046-40.647c0-3.869,0-7.804,0-11.815c-1.897-0.227-3.531,0.114-5.055,1.001
		c-3.14,1.83-3.962,4.853-3.975,8.015C122.015,17.993,117.771,17.993,113.355,17.993z"/>
	<path fill-rule="evenodd" clip-rule="evenodd" d="M120.041,37.842c3.722-0.114,7.107,0.85,10.017,3.225
		c5.173,4.223,5.229,11.235,0.146,15.567c-5.342,4.554-15.084,4.586-20.445,0.068c-5.23-4.407-5.131-11.503,0.22-15.765
		C112.693,38.775,115.734,37.839,120.041,37.842z M120.008,40.012c-3.199-0.144-6.117,0.618-8.644,2.59
		c-4.407,3.44-4.37,9.247,0.052,12.663c4.463,3.449,12.32,3.516,16.851,0.143c4.745-3.532,4.729-9.536-0.056-13.036
		C125.767,40.583,122.986,39.888,120.008,40.012z"/>
	<path fill-rule="evenodd" clip-rule="evenodd" d="M126.53,33.397c-0.012,1.205-1.005,2.184-2.186,2.155
		c-1.165-0.028-2.179-1.07-2.167-2.227c0.014-1.178,1.025-2.139,2.232-2.121C125.656,31.224,126.543,32.14,126.53,33.397z"/>
	<path fill-rule="evenodd" clip-rule="evenodd" d="M115.509,35.553c-1.188,0.009-2.153-0.967-2.159-2.181
		c-0.006-1.254,0.889-2.157,2.141-2.159c1.219-0.003,2.2,0.95,2.203,2.138C117.697,34.51,116.67,35.545,115.509,35.553z"/>
	<path fill-rule="evenodd" clip-rule="evenodd" d="M115.447,51.065c-1.242-0.034-2.123-0.965-2.1-2.218
		c0.021-1.209,1.018-2.169,2.205-2.127c1.177,0.042,2.17,1.08,2.146,2.243C117.674,50.137,116.645,51.098,115.447,51.065z"/>
	<path fill-rule="evenodd" clip-rule="evenodd" d="M126.531,48.891c0.006,1.244-0.901,2.164-2.141,2.169
		c-1.206,0.005-2.201-0.959-2.207-2.141c-0.006-1.162,1.014-2.188,2.182-2.197C125.562,46.713,126.523,47.675,126.531,48.891z"/>
</g>
<g opacity="0.1">
	<path fill-rule="evenodd" clip-rule="evenodd" d="M440.019,71.984c-1.145,3.016-3.246,3.685-5.869,3.603
		c-3.016-0.095-6.035-0.011-9.055-0.022c-3.275-0.013-5.033-1.753-5.053-4.991c-0.014-2.029-0.009-4.059-0.016-6.088
		c0-0.101-0.039-0.201-0.061-0.302c-20.076-10.439-21.121-34.495,0.074-46.125c0-2.777-0.007-5.63,0.002-8.483
		c0.01-3.355,1.758-5.091,5.107-5.094c5.421-0.005,9.732,2.877,11.803,7.889c0.137,0.331,0.281,0.659,0.439,1.026
		c1.729,0,3.436,0,5.236,0c0.209-0.508,0.412-1.03,0.637-1.542c2.131-4.854,7.199-7.844,12.469-7.359
		c2.513,0.231,4.211,2.002,4.244,4.534c0.04,3.014,0.01,6.029,0.01,9.003c20.051,10.285,21.271,34.515,0.002,46.167
		c0,2.11,0.01,4.288-0.002,6.464c-0.017,3.04-1.805,4.868-4.844,4.896c-3.227,0.03-6.455-0.05-9.68,0.02
		C442.968,75.637,441.103,74.791,440.019,71.984z M433.425,17.993c0.058-2.388-0.362-4.765-2.19-6.637
		c-1.853-1.898-4.085-2.681-6.813-2.367c0,4.051,0,7.947,0,11.903c-0.508,0.253-0.969,0.481-1.428,0.711
		c-3.619,1.817-6.854,4.134-9.46,7.271c-5.095,6.132-6.075,13.938-2.542,20.688c2.368,4.525,6.016,7.781,10.42,10.249
		c0.986,0.553,1.994,1.064,3.059,1.63c0,3.219,0,6.377,0,9.629c3.734,0,7.346,0,11.164,0c0-2.305,0-4.508,0-6.673
		c3.001,0,5.794,0,8.753,0c0,2.232,0,4.394,0,6.642c3.82,0,7.472,0,11.221,0c0-3.308,0-6.476,0-9.598
		c20.888-9.308,20.378-31.793-0.046-40.647c0-3.869,0-7.804,0-11.815c-1.897-0.227-3.531,0.114-5.055,1.001
		c-3.14,1.83-3.962,4.853-3.975,8.015C442.084,17.993,437.841,17.993,433.425,17.993z"/>
	<path fill-rule="evenodd" clip-rule="evenodd" d="M440.11,37.842c3.722-0.114,7.107,0.85,10.017,3.225
		c5.173,4.223,5.229,11.235,0.146,15.567c-5.342,4.554-15.084,4.586-20.445,0.068c-5.23-4.407-5.131-11.503,0.22-15.765
		C432.763,38.775,435.804,37.839,440.11,37.842z M440.077,40.012c-3.199-0.144-6.117,0.618-8.644,2.59
		c-4.407,3.44-4.37,9.247,0.052,12.663c4.463,3.449,12.32,3.516,16.851,0.143c4.745-3.532,4.729-9.536-0.056-13.036
		C445.836,40.583,443.056,39.888,440.077,40.012z"/>
	<path fill-rule="evenodd" clip-rule="evenodd" d="M446.6,33.397c-0.012,1.205-1.005,2.184-2.186,2.155
		c-1.165-0.028-2.179-1.07-2.167-2.227c0.014-1.178,1.025-2.139,2.232-2.121C445.726,31.224,446.612,32.14,446.6,33.397z"/>
	<path fill-rule="evenodd" clip-rule="evenodd" d="M435.578,35.553c-1.188,0.009-2.153-0.967-2.159-2.181
		c-0.006-1.254,0.889-2.157,2.141-2.159c1.219-0.003,2.2,0.95,2.203,2.138C437.767,34.51,436.739,35.545,435.578,35.553z"/>
	<path fill-rule="evenodd" clip-rule="evenodd" d="M435.517,51.065c-1.242-0.034-2.123-0.965-2.1-2.218
		c0.021-1.209,1.018-2.169,2.205-2.127c1.177,0.042,2.17,1.08,2.146,2.243C437.743,50.137,436.714,51.098,435.517,51.065z"/>
	<path fill-rule="evenodd" clip-rule="evenodd" d="M446.601,48.891c0.006,1.244-0.901,2.164-2.141,2.169
		c-1.206,0.005-2.201-0.959-2.207-2.141c-0.006-1.162,1.014-2.188,2.182-2.197C445.632,46.713,446.593,47.675,446.601,48.891z"/>
</g>
<g opacity="0.1">
	<path fill-rule="evenodd" clip-rule="evenodd" d="M200.15,152.024c-1.145,3.016-3.246,3.685-5.869,3.603
		c-3.016-0.095-6.035-0.011-9.055-0.022c-3.275-0.013-5.033-1.753-5.053-4.991c-0.014-2.029-0.009-4.059-0.016-6.088
		c0-0.101-0.039-0.201-0.061-0.302c-20.076-10.439-21.121-34.495,0.074-46.125c0-2.777-0.007-5.63,0.002-8.483
		c0.01-3.355,1.758-5.091,5.107-5.094c5.421-0.005,9.732,2.877,11.803,7.889c0.137,0.331,0.281,0.659,0.439,1.026
		c1.729,0,3.436,0,5.236,0c0.209-0.508,0.412-1.03,0.637-1.542c2.131-4.854,7.199-7.844,12.469-7.359
		c2.513,0.231,4.211,2.002,4.244,4.534c0.04,3.014,0.01,6.029,0.01,9.003c20.051,10.285,21.271,34.515,0.002,46.167
		c0,2.11,0.01,4.288-0.002,6.464c-0.017,3.04-1.805,4.868-4.844,4.896c-3.227,0.03-6.455-0.05-9.68,0.02
		C203.1,155.676,201.234,154.83,200.15,152.024z M193.557,98.033c0.058-2.388-0.362-4.765-2.19-6.637
		c-1.853-1.898-4.085-2.681-6.813-2.367c0,4.051,0,7.947,0,11.903c-0.508,0.253-0.969,0.481-1.428,0.711
		c-3.619,1.817-6.854,4.134-9.46,7.271c-5.095,6.132-6.075,13.938-2.542,20.688c2.368,4.525,6.016,7.781,10.42,10.249
		c0.986,0.553,1.994,1.064,3.059,1.63c0,3.219,0,6.377,0,9.629c3.734,0,7.346,0,11.164,0c0-2.305,0-4.508,0-6.673
		c3.001,0,5.794,0,8.753,0c0,2.232,0,4.394,0,6.642c3.82,0,7.472,0,11.221,0c0-3.308,0-6.476,0-9.598
		c20.888-9.308,20.378-31.793-0.046-40.647c0-3.869,0-7.804,0-11.815c-1.897-0.227-3.531,0.114-5.055,1.001
		c-3.14,1.83-3.962,4.853-3.975,8.015C202.216,98.033,197.973,98.033,193.557,98.033z"/>
	<path fill-rule="evenodd" clip-rule="evenodd" d="M200.242,117.882c3.722-0.114,7.107,0.85,10.017,3.225
		c5.173,4.223,5.229,11.235,0.146,15.567c-5.342,4.554-15.084,4.586-20.445,0.068c-5.23-4.407-5.131-11.503,0.22-15.765
		C192.895,118.814,195.936,117.879,200.242,117.882z M200.209,120.051c-3.199-0.144-6.117,0.618-8.644,2.59
		c-4.407,3.44-4.37,9.247,0.052,12.663c4.463,3.449,12.32,3.516,16.851,0.143c4.745-3.532,4.729-9.536-0.056-13.036
		C205.968,120.622,203.188,119.928,200.209,120.051z"/>
	<path fill-rule="evenodd" clip-rule="evenodd" d="M206.731,113.437c-0.012,1.205-1.005,2.184-2.186,2.155
		c-1.165-0.028-2.179-1.07-2.167-2.227c0.014-1.178,1.025-2.139,2.232-2.121C205.857,111.264,206.744,112.18,206.731,113.437z"/>
	<path fill-rule="evenodd" clip-rule="evenodd" d="M195.71,115.593c-1.188,0.009-2.153-0.967-2.159-2.181
		c-0.006-1.254,0.889-2.157,2.141-2.159c1.219-0.003,2.2,0.95,2.203,2.138C197.898,114.549,196.871,115.584,195.71,115.593z"/>
	<path fill-rule="evenodd" clip-rule="evenodd" d="M195.648,131.105c-1.242-0.034-2.123-0.965-2.1-2.218
		c0.021-1.209,1.018-2.169,2.205-2.127c1.177,0.042,2.17,1.08,2.146,2.243C197.875,130.176,196.846,131.138,195.648,131.105z"/>
	<path fill-rule="evenodd" clip-rule="evenodd" d="M206.732,128.931c0.006,1.244-0.901,2.164-2.141,2.169
		c-1.206,0.005-2.201-0.959-2.207-2.141c-0.006-1.162,1.014-2.188,2.182-2.197C205.764,126.752,206.725,127.715,206.732,128.931z"/>
</g>
<g opacity="0.1">
	<path fill-rule="evenodd" clip-rule="evenodd" d="M40.048,152.024c-1.145,3.016-3.246,3.685-5.869,3.603
		c-3.016-0.095-6.035-0.011-9.055-0.022c-3.275-0.013-5.033-1.753-5.053-4.991c-0.014-2.029-0.009-4.059-0.016-6.088
		c0-0.101-0.039-0.201-0.061-0.302c-20.076-10.439-21.121-34.495,0.074-46.125c0-2.777-0.007-5.63,0.002-8.483
		c0.01-3.355,1.758-5.091,5.107-5.094c5.421-0.005,9.732,2.877,11.803,7.889c0.137,0.331,0.281,0.659,0.439,1.026
		c1.729,0,3.436,0,5.236,0c0.209-0.508,0.412-1.03,0.637-1.542c2.131-4.854,7.199-7.844,12.469-7.359
		c2.513,0.231,4.211,2.002,4.244,4.534c0.04,3.014,0.01,6.029,0.01,9.003c20.051,10.285,21.271,34.515,0.002,46.167
		c0,2.11,0.01,4.288-0.002,6.464c-0.017,3.04-1.805,4.868-4.844,4.896c-3.227,0.03-6.455-0.05-9.68,0.02
		C42.997,155.676,41.132,154.83,40.048,152.024z M33.454,98.033c0.058-2.388-0.362-4.765-2.19-6.637
		c-1.853-1.898-4.085-2.681-6.813-2.367c0,4.051,0,7.947,0,11.903c-0.508,0.253-0.969,0.481-1.428,0.711
		c-3.619,1.817-6.854,4.134-9.46,7.271c-5.095,6.132-6.075,13.938-2.542,20.688c2.368,4.525,6.016,7.781,10.42,10.249
		c0.986,0.553,1.994,1.064,3.059,1.63c0,3.219,0,6.377,0,9.629c3.734,0,7.346,0,11.164,0c0-2.305,0-4.508,0-6.673
		c3.001,0,5.794,0,8.753,0c0,2.232,0,4.394,0,6.642c3.82,0,7.472,0,11.221,0c0-3.308,0-6.476,0-9.598
		c20.888-9.308,20.378-31.793-0.046-40.647c0-3.869,0-7.804,0-11.815c-1.897-0.227-3.531,0.114-5.055,1.001
		c-3.14,1.83-3.962,4.853-3.975,8.015C42.113,98.033,37.87,98.033,33.454,98.033z"/>
	<path fill-rule="evenodd" clip-rule="evenodd" d="M40.14,117.882c3.722-0.114,7.107,0.85,10.017,3.225
		c5.173,4.223,5.229,11.235,0.146,15.567c-5.342,4.554-15.084,4.586-20.445,0.068c-5.23-4.407-5.131-11.503,0.22-15.765
		C32.792,118.814,35.833,117.879,40.14,117.882z M40.106,120.051c-3.199-0.144-6.117,0.618-8.644,2.59
		c-4.407,3.44-4.37,9.247,0.052,12.663c4.463,3.449,12.32,3.516,16.851,0.143c4.745-3.532,4.729-9.536-0.056-13.036
		C45.865,120.622,43.085,119.928,40.106,120.051z"/>
	<path fill-rule="evenodd" clip-rule="evenodd" d="M46.629,113.437c-0.012,1.205-1.005,2.184-2.186,2.155
		c-1.165-0.028-2.179-1.07-2.167-2.227c0.014-1.178,1.025-2.139,2.232-2.121C45.755,111.264,46.642,112.18,46.629,113.437z"/>
	<path fill-rule="evenodd" clip-rule="evenodd" d="M35.607,115.593c-1.188,0.009-2.153-0.967-2.159-2.181
		c-0.006-1.254,0.889-2.157,2.141-2.159c1.219-0.003,2.2,0.95,2.203,2.138C37.796,114.549,36.769,115.584,35.607,115.593z"/>
	<path fill-rule="evenodd" clip-rule="evenodd" d="M35.546,131.105c-1.242-0.034-2.123-0.965-2.1-2.218
		c0.021-1.209,1.018-2.169,2.205-2.127c1.177,0.042,2.17,1.08,2.146,2.243C37.772,130.176,36.743,131.138,35.546,131.105z"/>
	<path fill-rule="evenodd" clip-rule="evenodd" d="M46.63,128.931c0.006,1.244-0.901,2.164-2.141,2.169
		c-1.206,0.005-2.201-0.959-2.207-2.141c-0.006-1.162,1.014-2.188,2.182-2.197C45.661,126.752,46.622,127.715,46.63,128.931z"/>
</g>
<g opacity="0.1">
	<path fill-rule="evenodd" clip-rule="evenodd" d="M360.117,152.024c-1.145,3.016-3.246,3.685-5.869,3.603
		c-3.016-0.095-6.035-0.011-9.055-0.022c-3.275-0.013-5.033-1.753-5.053-4.991c-0.014-2.029-0.009-4.059-0.016-6.088
		c0-0.101-0.039-0.201-0.061-0.302c-20.076-10.439-21.121-34.495,0.074-46.125c0-2.777-0.007-5.63,0.002-8.483
		c0.01-3.355,1.758-5.091,5.107-5.094c5.421-0.005,9.732,2.877,11.803,7.889c0.137,0.331,0.281,0.659,0.439,1.026
		c1.729,0,3.436,0,5.236,0c0.209-0.508,0.412-1.03,0.637-1.542c2.131-4.854,7.199-7.844,12.469-7.359
		c2.513,0.231,4.211,2.002,4.244,4.534c0.04,3.014,0.01,6.029,0.01,9.003c20.051,10.285,21.271,34.515,0.002,46.167
		c0,2.11,0.01,4.288-0.002,6.464c-0.017,3.04-1.805,4.868-4.844,4.896c-3.227,0.03-6.455-0.05-9.68,0.02
		C363.066,155.676,361.201,154.83,360.117,152.024z M353.523,98.033c0.058-2.388-0.362-4.765-2.19-6.637
		c-1.853-1.898-4.085-2.681-6.813-2.367c0,4.051,0,7.947,0,11.903c-0.508,0.253-0.969,0.481-1.428,0.711
		c-3.619,1.817-6.854,4.134-9.46,7.271c-5.095,6.132-6.075,13.938-2.542,20.688c2.368,4.525,6.016,7.781,10.42,10.249
		c0.986,0.553,1.994,1.064,3.059,1.63c0,3.219,0,6.377,0,9.629c3.734,0,7.346,0,11.164,0c0-2.305,0-4.508,0-6.673
		c3.001,0,5.794,0,8.753,0c0,2.232,0,4.394,0,6.642c3.82,0,7.472,0,11.221,0c0-3.308,0-6.476,0-9.598
		c20.888-9.308,20.378-31.793-0.046-40.647c0-3.869,0-7.804,0-11.815c-1.897-0.227-3.531,0.114-5.055,1.001
		c-3.14,1.83-3.962,4.853-3.975,8.015C362.183,98.033,357.939,98.033,353.523,98.033z"/>
	<path fill-rule="evenodd" clip-rule="evenodd" d="M360.209,117.882c3.722-0.114,7.107,0.85,10.017,3.225
		c5.173,4.223,5.229,11.235,0.146,15.567c-5.342,4.554-15.084,4.586-20.445,0.068c-5.23-4.407-5.131-11.503,0.22-15.765
		C352.861,118.814,355.902,117.879,360.209,117.882z M360.176,120.051c-3.199-0.144-6.117,0.618-8.644,2.59
		c-4.407,3.44-4.37,9.247,0.052,12.663c4.463,3.449,12.32,3.516,16.851,0.143c4.745-3.532,4.729-9.536-0.056-13.036
		C365.935,120.622,363.154,119.928,360.176,120.051z"/>
	<path fill-rule="evenodd" clip-rule="evenodd" d="M366.698,113.437c-0.012,1.205-1.005,2.184-2.186,2.155
		c-1.165-0.028-2.179-1.07-2.167-2.227c0.014-1.178,1.025-2.139,2.232-2.121C365.824,111.264,366.711,112.18,366.698,113.437z"/>
	<path fill-rule="evenodd" clip-rule="evenodd" d="M355.677,115.593c-1.188,0.009-2.153-0.967-2.159-2.181
		c-0.006-1.254,0.889-2.157,2.141-2.159c1.219-0.003,2.2,0.95,2.203,2.138C357.865,114.549,356.838,115.584,355.677,115.593z"/>
	<path fill-rule="evenodd" clip-rule="evenodd" d="M355.615,131.105c-1.242-0.034-2.123-0.965-2.1-2.218
		c0.021-1.209,1.018-2.169,2.205-2.127c1.177,0.042,2.17,1.08,2.146,2.243C357.842,130.176,356.812,131.138,355.615,131.105z"/>
	<path fill-rule="evenodd" clip-rule="evenodd" d="M366.699,128.931c0.006,1.244-0.901,2.164-2.141,2.169
		c-1.206,0.005-2.201-0.959-2.207-2.141c-0.006-1.162,1.014-2.188,2.182-2.197C365.73,126.752,366.691,127.715,366.699,128.931z"/>
</g>
<g opacity="0.1">
	<path fill-rule="evenodd" clip-rule="evenodd" d="M280.051,231.945c-1.145,3.016-3.246,3.685-5.869,3.603
		c-3.016-0.095-6.035-0.011-9.055-0.022c-3.275-0.013-5.033-1.753-5.053-4.991c-0.014-2.029-0.008-4.059-0.016-6.088
		c0-0.101-0.039-0.201-0.061-0.302c-20.076-10.439-21.121-34.495,0.074-46.125c0-2.777-0.006-5.63,0.002-8.483
		c0.01-3.355,1.758-5.091,5.107-5.094c5.422-0.005,9.732,2.877,11.803,7.889c0.137,0.331,0.281,0.659,0.439,1.026
		c1.73,0,3.436,0,5.236,0c0.209-0.508,0.412-1.03,0.637-1.542c2.131-4.854,7.199-7.844,12.469-7.359
		c2.514,0.231,4.211,2.002,4.244,4.534c0.041,3.014,0.01,6.029,0.01,9.003c20.051,10.285,21.271,34.515,0.002,46.167
		c0,2.11,0.01,4.288-0.002,6.464c-0.016,3.04-1.805,4.868-4.844,4.896c-3.227,0.03-6.455-0.05-9.68,0.02
		C283,235.598,281.135,234.751,280.051,231.945z M273.457,177.954c0.059-2.388-0.361-4.765-2.189-6.637
		c-1.854-1.898-4.086-2.681-6.814-2.367c0,4.051,0,7.947,0,11.903c-0.508,0.253-0.969,0.481-1.428,0.711
		c-3.619,1.817-6.854,4.134-9.459,7.271c-5.096,6.132-6.076,13.938-2.543,20.688c2.369,4.525,6.016,7.781,10.42,10.249
		c0.986,0.553,1.994,1.064,3.059,1.63c0,3.219,0,6.377,0,9.629c3.734,0,7.346,0,11.164,0c0-2.305,0-4.508,0-6.673
		c3.002,0,5.795,0,8.754,0c0,2.232,0,4.394,0,6.642c3.82,0,7.471,0,11.221,0c0-3.308,0-6.476,0-9.598
		c20.887-9.308,20.377-31.793-0.047-40.647c0-3.869,0-7.804,0-11.815c-1.896-0.227-3.531,0.114-5.055,1.001
		c-3.139,1.83-3.961,4.853-3.975,8.015C282.117,177.954,277.873,177.954,273.457,177.954z"/>
	<path fill-rule="evenodd" clip-rule="evenodd" d="M280.143,197.803c3.723-0.114,7.107,0.85,10.018,3.225
		c5.172,4.223,5.229,11.235,0.145,15.567c-5.342,4.554-15.084,4.586-20.445,0.068c-5.23-4.407-5.131-11.503,0.221-15.765
		C272.795,198.736,275.836,197.8,280.143,197.803z M280.109,199.973c-3.199-0.144-6.117,0.618-8.643,2.59
		c-4.408,3.44-4.371,9.247,0.051,12.663c4.463,3.449,12.32,3.516,16.852,0.143c4.744-3.532,4.729-9.536-0.057-13.036
		C285.869,200.543,283.088,199.849,280.109,199.973z"/>
	<path fill-rule="evenodd" clip-rule="evenodd" d="M286.633,193.358c-0.012,1.205-1.006,2.184-2.186,2.155
		c-1.166-0.028-2.18-1.07-2.168-2.227c0.014-1.178,1.025-2.139,2.232-2.121C285.758,191.185,286.645,192.101,286.633,193.358z"/>
	<path fill-rule="evenodd" clip-rule="evenodd" d="M275.611,195.514c-1.188,0.009-2.154-0.967-2.16-2.181
		c-0.006-1.254,0.889-2.157,2.141-2.159c1.219-0.003,2.201,0.95,2.203,2.138C277.799,194.471,276.771,195.506,275.611,195.514z"/>
	<path fill-rule="evenodd" clip-rule="evenodd" d="M275.549,211.026c-1.242-0.034-2.123-0.965-2.1-2.218
		c0.021-1.209,1.018-2.169,2.205-2.127c1.178,0.042,2.17,1.08,2.146,2.243C277.775,210.098,276.746,211.059,275.549,211.026z"/>
	<path fill-rule="evenodd" clip-rule="evenodd" d="M286.633,208.852c0.006,1.244-0.9,2.164-2.141,2.169
		c-1.205,0.005-2.201-0.959-2.207-2.141c-0.006-1.162,1.014-2.188,2.182-2.197C285.664,206.674,286.625,207.636,286.633,208.852z"/>
</g>
<g opacity="0.1">
	<path fill-rule="evenodd" clip-rule="evenodd" d="M119.949,231.945c-1.145,3.016-3.246,3.685-5.869,3.603
		c-3.016-0.095-6.035-0.011-9.055-0.022c-3.275-0.013-5.033-1.753-5.053-4.991c-0.014-2.029-0.009-4.059-0.016-6.088
		c0-0.101-0.039-0.201-0.061-0.302c-20.076-10.439-21.121-34.495,0.074-46.125c0-2.777-0.007-5.63,0.002-8.483
		c0.01-3.355,1.758-5.091,5.107-5.094c5.421-0.005,9.732,2.877,11.803,7.889c0.137,0.331,0.281,0.659,0.439,1.026
		c1.729,0,3.436,0,5.236,0c0.209-0.508,0.412-1.03,0.637-1.542c2.131-4.854,7.199-7.844,12.469-7.359
		c2.513,0.231,4.211,2.002,4.244,4.534c0.04,3.014,0.01,6.029,0.01,9.003c20.051,10.285,21.271,34.515,0.002,46.167
		c0,2.11,0.01,4.288-0.002,6.464c-0.017,3.04-1.805,4.868-4.844,4.896c-3.227,0.03-6.455-0.05-9.68,0.02
		C122.898,235.598,121.033,234.751,119.949,231.945z M113.355,177.954c0.058-2.388-0.362-4.765-2.19-6.637
		c-1.853-1.898-4.085-2.681-6.813-2.367c0,4.051,0,7.947,0,11.903c-0.508,0.253-0.969,0.481-1.428,0.711
		c-3.619,1.817-6.854,4.134-9.46,7.271c-5.095,6.132-6.075,13.938-2.542,20.688c2.368,4.525,6.016,7.781,10.42,10.249
		c0.986,0.553,1.994,1.064,3.059,1.63c0,3.219,0,6.377,0,9.629c3.734,0,7.346,0,11.164,0c0-2.305,0-4.508,0-6.673
		c3.001,0,5.794,0,8.753,0c0,2.232,0,4.394,0,6.642c3.82,0,7.472,0,11.221,0c0-3.308,0-6.476,0-9.598
		c20.888-9.308,20.378-31.793-0.046-40.647c0-3.869,0-7.804,0-11.815c-1.897-0.227-3.531,0.114-5.055,1.001
		c-3.14,1.83-3.962,4.853-3.975,8.015C122.014,177.954,117.771,177.954,113.355,177.954z"/>
	<path fill-rule="evenodd" clip-rule="evenodd" d="M120.041,197.803c3.722-0.114,7.107,0.85,10.017,3.225
		c5.173,4.223,5.229,11.235,0.146,15.567c-5.342,4.554-15.084,4.586-20.445,0.068c-5.23-4.407-5.131-11.503,0.22-15.765
		C112.693,198.736,115.734,197.8,120.041,197.803z M120.007,199.973c-3.199-0.144-6.117,0.618-8.644,2.59
		c-4.407,3.44-4.37,9.247,0.052,12.663c4.463,3.449,12.32,3.516,16.851,0.143c4.745-3.532,4.729-9.536-0.056-13.036
		C125.766,200.543,122.986,199.849,120.007,199.973z"/>
	<path fill-rule="evenodd" clip-rule="evenodd" d="M126.53,193.358c-0.012,1.205-1.005,2.184-2.186,2.155
		c-1.165-0.028-2.179-1.07-2.167-2.227c0.014-1.178,1.025-2.139,2.232-2.121C125.656,191.185,126.542,192.101,126.53,193.358z"/>
	<path fill-rule="evenodd" clip-rule="evenodd" d="M115.508,195.514c-1.188,0.009-2.153-0.967-2.159-2.181
		c-0.006-1.254,0.889-2.157,2.141-2.159c1.219-0.003,2.2,0.95,2.203,2.138C117.697,194.471,116.669,195.506,115.508,195.514z"/>
	<path fill-rule="evenodd" clip-rule="evenodd" d="M115.447,211.026c-1.242-0.034-2.123-0.965-2.1-2.218
		c0.021-1.209,1.018-2.169,2.205-2.127c1.177,0.042,2.17,1.08,2.146,2.243C117.673,210.098,116.644,211.059,115.447,211.026z"/>
	<path fill-rule="evenodd" clip-rule="evenodd" d="M126.531,208.852c0.006,1.244-0.901,2.164-2.141,2.169
		c-1.206,0.005-2.201-0.959-2.207-2.141c-0.006-1.162,1.014-2.188,2.182-2.197C125.562,206.674,126.523,207.636,126.531,208.852z"/>
</g>
<g opacity="0.1">
	<path fill-rule="evenodd" clip-rule="evenodd" d="M440.018,231.945c-1.145,3.016-3.246,3.685-5.869,3.603
		c-3.016-0.095-6.035-0.011-9.055-0.022c-3.275-0.013-5.033-1.753-5.053-4.991c-0.014-2.029-0.008-4.059-0.016-6.088
		c0-0.101-0.039-0.201-0.061-0.302c-20.076-10.439-21.121-34.495,0.074-46.125c0-2.777-0.006-5.63,0.002-8.483
		c0.01-3.355,1.758-5.091,5.107-5.094c5.422-0.005,9.732,2.877,11.803,7.889c0.137,0.331,0.281,0.659,0.439,1.026
		c1.73,0,3.436,0,5.236,0c0.209-0.508,0.412-1.03,0.637-1.542c2.131-4.854,7.199-7.844,12.469-7.359
		c2.514,0.231,4.211,2.002,4.244,4.534c0.041,3.014,0.01,6.029,0.01,9.003c20.051,10.285,21.271,34.515,0.002,46.167
		c0,2.11,0.01,4.288-0.002,6.464c-0.016,3.04-1.805,4.868-4.844,4.896c-3.227,0.03-6.455-0.05-9.68,0.02
		C442.967,235.598,441.102,234.751,440.018,231.945z M433.424,177.954c0.059-2.388-0.361-4.765-2.189-6.637
		c-1.854-1.898-4.086-2.681-6.814-2.367c0,4.051,0,7.947,0,11.903c-0.508,0.253-0.969,0.481-1.428,0.711
		c-3.619,1.817-6.854,4.134-9.459,7.271c-5.096,6.132-6.076,13.938-2.543,20.688c2.369,4.525,6.016,7.781,10.42,10.249
		c0.986,0.553,1.994,1.064,3.059,1.63c0,3.219,0,6.377,0,9.629c3.734,0,7.346,0,11.164,0c0-2.305,0-4.508,0-6.673
		c3.002,0,5.795,0,8.754,0c0,2.232,0,4.394,0,6.642c3.82,0,7.471,0,11.221,0c0-3.308,0-6.476,0-9.598
		c20.887-9.308,20.377-31.793-0.047-40.647c0-3.869,0-7.804,0-11.815c-1.896-0.227-3.531,0.114-5.055,1.001
		c-3.139,1.83-3.961,4.853-3.975,8.015C442.084,177.954,437.84,177.954,433.424,177.954z"/>
	<path fill-rule="evenodd" clip-rule="evenodd" d="M440.109,197.803c3.723-0.114,7.107,0.85,10.018,3.225
		c5.172,4.223,5.229,11.235,0.145,15.567c-5.342,4.554-15.084,4.586-20.445,0.068c-5.23-4.407-5.131-11.503,0.221-15.765
		C432.762,198.736,435.803,197.8,440.109,197.803z M440.076,199.973c-3.199-0.144-6.117,0.618-8.643,2.59
		c-4.408,3.44-4.371,9.247,0.051,12.663c4.463,3.449,12.32,3.516,16.852,0.143c4.744-3.532,4.729-9.536-0.057-13.036
		C445.836,200.543,443.055,199.849,440.076,199.973z"/>
	<path fill-rule="evenodd" clip-rule="evenodd" d="M446.6,193.358c-0.012,1.205-1.006,2.184-2.186,2.155
		c-1.166-0.028-2.18-1.07-2.168-2.227c0.014-1.178,1.025-2.139,2.232-2.121C445.725,191.185,446.611,192.101,446.6,193.358z"/>
	<path fill-rule="evenodd" clip-rule="evenodd" d="M435.578,195.514c-1.188,0.009-2.154-0.967-2.16-2.181
		c-0.006-1.254,0.889-2.157,2.141-2.159c1.219-0.003,2.201,0.95,2.203,2.138C437.766,194.471,436.738,195.506,435.578,195.514z"/>
	<path fill-rule="evenodd" clip-rule="evenodd" d="M435.516,211.026c-1.242-0.034-2.123-0.965-2.1-2.218
		c0.021-1.209,1.018-2.169,2.205-2.127c1.178,0.042,2.17,1.08,2.146,2.243C437.742,210.098,436.713,211.059,435.516,211.026z"/>
	<path fill-rule="evenodd" clip-rule="evenodd" d="M446.6,208.852c0.006,1.244-0.9,2.164-2.141,2.169
		c-1.205,0.005-2.201-0.959-2.207-2.141c-0.006-1.162,1.014-2.188,2.182-2.197C445.631,206.674,446.592,207.636,446.6,208.852z"/>
</g>
<g opacity="0.1">
	<path fill-rule="evenodd" clip-rule="evenodd" d="M200.15,311.984c-1.145,3.017-3.246,3.686-5.869,3.604
		c-3.016-0.096-6.035-0.012-9.055-0.023c-3.275-0.013-5.033-1.752-5.053-4.99c-0.014-2.029-0.009-4.059-0.016-6.089
		c0-0.101-0.039-0.201-0.061-0.302c-20.076-10.439-21.121-34.494,0.074-46.125c0-2.776-0.007-5.629,0.002-8.482
		c0.01-3.355,1.758-5.091,5.107-5.094c5.421-0.005,9.732,2.877,11.803,7.889c0.137,0.332,0.281,0.659,0.439,1.027
		c1.729,0,3.436,0,5.236,0c0.209-0.509,0.412-1.03,0.637-1.542c2.131-4.854,7.199-7.845,12.469-7.358
		c2.513,0.23,4.211,2.002,4.244,4.533c0.04,3.014,0.01,6.029,0.01,9.004c20.051,10.285,21.272,34.516,0.002,46.166
		c0,2.111,0.01,4.288-0.002,6.465c-0.017,3.04-1.805,4.867-4.844,4.896c-3.227,0.03-6.455-0.051-9.68,0.02
		C203.099,315.637,201.234,314.791,200.15,311.984z M193.556,257.994c0.058-2.389-0.362-4.766-2.19-6.638
		c-1.853-1.898-4.085-2.681-6.813-2.366c0,4.051,0,7.947,0,11.902c-0.508,0.254-0.969,0.48-1.428,0.711
		c-3.619,1.817-6.854,4.135-9.46,7.271c-5.095,6.131-6.075,13.938-2.542,20.688c2.368,4.525,6.016,7.781,10.42,10.248
		c0.986,0.553,1.994,1.064,3.059,1.631c0,3.219,0,6.377,0,9.629c3.734,0,7.346,0,11.164,0c0-2.305,0-4.508,0-6.674
		c3.001,0,5.794,0,8.753,0c0,2.232,0,4.395,0,6.643c3.82,0,7.472,0,11.221,0c0-3.309,0-6.477,0-9.599
		c20.888-9.308,20.378-31.793-0.046-40.647c0-3.869,0-7.803,0-11.814c-1.897-0.228-3.531,0.113-5.055,1
		c-3.14,1.83-3.962,4.854-3.975,8.016C202.215,257.994,197.972,257.994,193.556,257.994z"/>
	<path fill-rule="evenodd" clip-rule="evenodd" d="M200.242,277.843c3.722-0.114,7.107,0.85,10.017,3.226
		c5.173,4.223,5.229,11.234,0.146,15.566c-5.342,4.555-15.084,4.586-20.445,0.068c-5.23-4.407-5.131-11.503,0.22-15.766
		C192.894,278.775,195.935,277.84,200.242,277.843z M200.208,280.012c-3.199-0.143-6.117,0.619-8.644,2.59
		c-4.407,3.441-4.37,9.247,0.052,12.663c4.463,3.449,12.32,3.516,16.851,0.144c4.745-3.533,4.729-9.537-0.056-13.037
		C205.967,280.583,203.187,279.889,200.208,280.012z"/>
	<path fill-rule="evenodd" clip-rule="evenodd" d="M206.731,273.397c-0.012,1.204-1.005,2.184-2.186,2.155
		c-1.165-0.027-2.179-1.07-2.167-2.227c0.014-1.179,1.025-2.14,2.232-2.121C205.857,271.225,206.744,272.141,206.731,273.397z"/>
	<path fill-rule="evenodd" clip-rule="evenodd" d="M195.709,275.554c-1.188,0.009-2.153-0.967-2.159-2.181
		c-0.006-1.254,0.889-2.157,2.141-2.16c1.219-0.002,2.2,0.95,2.203,2.139C197.898,274.51,196.871,275.545,195.709,275.554z"/>
	<path fill-rule="evenodd" clip-rule="evenodd" d="M195.648,291.066c-1.242-0.035-2.123-0.966-2.1-2.219
		c0.021-1.209,1.018-2.168,2.205-2.127c1.177,0.042,2.17,1.08,2.146,2.243C197.875,290.137,196.845,291.099,195.648,291.066z"/>
	<path fill-rule="evenodd" clip-rule="evenodd" d="M206.732,288.892c0.006,1.243-0.901,2.164-2.141,2.169
		c-1.206,0.006-2.201-0.959-2.207-2.141c-0.006-1.162,1.014-2.188,2.182-2.197C205.763,286.713,206.724,287.676,206.732,288.892z"/>
</g>
<g opacity="0.1">
	<path fill-rule="evenodd" clip-rule="evenodd" d="M40.047,311.984c-1.145,3.017-3.246,3.686-5.869,3.604
		c-3.016-0.096-6.035-0.012-9.055-0.023c-3.275-0.013-5.033-1.752-5.053-4.99c-0.014-2.029-0.009-4.059-0.016-6.089
		c0-0.101-0.039-0.201-0.061-0.302c-20.076-10.439-21.121-34.494,0.074-46.125c0-2.776-0.007-5.629,0.002-8.482
		c0.01-3.355,1.758-5.091,5.107-5.094c5.421-0.005,9.732,2.877,11.803,7.889c0.137,0.332,0.281,0.659,0.439,1.027
		c1.729,0,3.436,0,5.236,0c0.209-0.509,0.412-1.03,0.637-1.542c2.131-4.854,7.199-7.845,12.469-7.358
		c2.513,0.23,4.211,2.002,4.244,4.533c0.04,3.014,0.01,6.029,0.01,9.004c20.051,10.285,21.271,34.516,0.002,46.166
		c0,2.111,0.01,4.288-0.002,6.465c-0.017,3.04-1.805,4.867-4.844,4.896c-3.227,0.03-6.455-0.051-9.68,0.02
		C42.997,315.637,41.131,314.791,40.047,311.984z M33.454,257.994c0.058-2.389-0.362-4.766-2.19-6.638
		c-1.853-1.898-4.085-2.681-6.813-2.366c0,4.051,0,7.947,0,11.902c-0.508,0.254-0.969,0.48-1.428,0.711
		c-3.619,1.817-6.854,4.135-9.46,7.271c-5.095,6.131-6.075,13.938-2.542,20.688c2.368,4.525,6.016,7.781,10.42,10.248
		c0.986,0.553,1.994,1.064,3.059,1.631c0,3.219,0,6.377,0,9.629c3.734,0,7.346,0,11.164,0c0-2.305,0-4.508,0-6.674
		c3.001,0,5.794,0,8.753,0c0,2.232,0,4.395,0,6.643c3.82,0,7.472,0,11.221,0c0-3.309,0-6.477,0-9.599
		c20.888-9.308,20.378-31.793-0.046-40.647c0-3.869,0-7.803,0-11.814c-1.897-0.228-3.531,0.113-5.055,1
		c-3.14,1.83-3.962,4.854-3.975,8.016C42.113,257.994,37.87,257.994,33.454,257.994z"/>
	<path fill-rule="evenodd" clip-rule="evenodd" d="M40.139,277.843c3.722-0.114,7.107,0.85,10.017,3.226
		c5.173,4.223,5.229,11.234,0.146,15.566c-5.342,4.555-15.084,4.586-20.445,0.068c-5.23-4.407-5.131-11.503,0.22-15.766
		C32.792,278.775,35.833,277.84,40.139,277.843z M40.106,280.012c-3.199-0.143-6.117,0.619-8.644,2.59
		c-4.407,3.441-4.37,9.247,0.052,12.663c4.463,3.449,12.32,3.516,16.851,0.144c4.745-3.533,4.729-9.537-0.056-13.037
		C45.865,280.583,43.084,279.889,40.106,280.012z"/>
	<path fill-rule="evenodd" clip-rule="evenodd" d="M46.628,273.397c-0.012,1.204-1.005,2.184-2.186,2.155
		c-1.165-0.027-2.179-1.07-2.167-2.227c0.014-1.179,1.025-2.14,2.232-2.121C45.754,271.225,46.641,272.141,46.628,273.397z"/>
	<path fill-rule="evenodd" clip-rule="evenodd" d="M35.607,275.554c-1.188,0.009-2.153-0.967-2.159-2.181
		c-0.006-1.254,0.889-2.157,2.141-2.16c1.219-0.002,2.2,0.95,2.203,2.139C37.795,274.51,36.768,275.545,35.607,275.554z"/>
	<path fill-rule="evenodd" clip-rule="evenodd" d="M35.545,291.066c-1.242-0.035-2.123-0.966-2.1-2.219
		c0.021-1.209,1.018-2.168,2.205-2.127c1.177,0.042,2.17,1.08,2.146,2.243C37.772,290.137,36.743,291.099,35.545,291.066z"/>
	<path fill-rule="evenodd" clip-rule="evenodd" d="M46.629,288.892c0.006,1.243-0.901,2.164-2.141,2.169
		c-1.206,0.006-2.201-0.959-2.207-2.141c-0.006-1.162,1.014-2.188,2.182-2.197C45.661,286.713,46.622,287.676,46.629,288.892z"/>
</g>
<g opacity="0.1">
	<path fill-rule="evenodd" clip-rule="evenodd" d="M360.117,311.984c-1.145,3.017-3.246,3.686-5.869,3.604
		c-3.016-0.096-6.035-0.012-9.055-0.023c-3.275-0.013-5.033-1.752-5.053-4.99c-0.014-2.029-0.01-4.059-0.016-6.089
		c0-0.101-0.039-0.201-0.061-0.302c-20.076-10.439-21.121-34.494,0.074-46.125c0-2.776-0.008-5.629,0.002-8.482
		c0.01-3.355,1.758-5.091,5.107-5.094c5.42-0.005,9.732,2.877,11.803,7.889c0.137,0.332,0.281,0.659,0.439,1.027
		c1.729,0,3.436,0,5.236,0c0.209-0.509,0.412-1.03,0.637-1.542c2.131-4.854,7.199-7.845,12.469-7.358
		c2.512,0.23,4.211,2.002,4.244,4.533c0.039,3.014,0.01,6.029,0.01,9.004c20.051,10.285,21.271,34.516,0.002,46.166
		c0,2.111,0.01,4.288-0.002,6.465c-0.018,3.04-1.805,4.867-4.844,4.896c-3.227,0.03-6.455-0.051-9.68,0.02
		C363.066,315.637,361.201,314.791,360.117,311.984z M353.523,257.994c0.057-2.389-0.363-4.766-2.191-6.638
		c-1.852-1.898-4.084-2.681-6.812-2.366c0,4.051,0,7.947,0,11.902c-0.508,0.254-0.969,0.48-1.428,0.711
		c-3.619,1.817-6.854,4.135-9.461,7.271c-5.094,6.131-6.074,13.938-2.541,20.688c2.367,4.525,6.016,7.781,10.42,10.248
		c0.986,0.553,1.994,1.064,3.059,1.631c0,3.219,0,6.377,0,9.629c3.734,0,7.346,0,11.164,0c0-2.305,0-4.508,0-6.674
		c3,0,5.793,0,8.752,0c0,2.232,0,4.395,0,6.643c3.82,0,7.473,0,11.221,0c0-3.309,0-6.477,0-9.599
		c20.889-9.308,20.379-31.793-0.045-40.647c0-3.869,0-7.803,0-11.814c-1.898-0.228-3.531,0.113-5.055,1
		c-3.141,1.83-3.963,4.854-3.975,8.016C362.182,257.994,357.939,257.994,353.523,257.994z"/>
	<path fill-rule="evenodd" clip-rule="evenodd" d="M360.209,277.843c3.721-0.114,7.107,0.85,10.016,3.226
		c5.174,4.223,5.229,11.234,0.146,15.566c-5.342,4.555-15.084,4.586-20.445,0.068c-5.23-4.407-5.131-11.503,0.219-15.766
		C352.861,278.775,355.902,277.84,360.209,277.843z M360.176,280.012c-3.199-0.143-6.117,0.619-8.645,2.59
		c-4.406,3.441-4.369,9.247,0.053,12.663c4.463,3.449,12.32,3.516,16.85,0.144c4.746-3.533,4.73-9.537-0.055-13.037
		C365.934,280.583,363.154,279.889,360.176,280.012z"/>
	<path fill-rule="evenodd" clip-rule="evenodd" d="M366.697,273.397c-0.012,1.204-1.004,2.184-2.186,2.155
		c-1.164-0.027-2.178-1.07-2.166-2.227c0.014-1.179,1.025-2.14,2.232-2.121C365.824,271.225,366.711,272.141,366.697,273.397z"/>
	<path fill-rule="evenodd" clip-rule="evenodd" d="M355.676,275.554c-1.188,0.009-2.152-0.967-2.158-2.181
		c-0.006-1.254,0.889-2.157,2.141-2.16c1.219-0.002,2.199,0.95,2.203,2.139C357.865,274.51,356.838,275.545,355.676,275.554z"/>
	<path fill-rule="evenodd" clip-rule="evenodd" d="M355.615,291.066c-1.242-0.035-2.123-0.966-2.1-2.219
		c0.021-1.209,1.018-2.168,2.205-2.127c1.176,0.042,2.17,1.08,2.145,2.243C357.842,290.137,356.812,291.099,355.615,291.066z"/>
	<path fill-rule="evenodd" clip-rule="evenodd" d="M366.699,288.892c0.006,1.243-0.902,2.164-2.141,2.169
		c-1.207,0.006-2.201-0.959-2.207-2.141c-0.006-1.162,1.014-2.188,2.182-2.197C365.73,286.713,366.691,287.676,366.699,288.892z"/>
</g>
<g opacity="0.1">
	<path fill-rule="evenodd" clip-rule="evenodd" d="M280.051,391.907c-1.145,3.016-3.246,3.686-5.869,3.603
		c-3.016-0.095-6.035-0.011-9.055-0.022c-3.275-0.014-5.033-1.753-5.053-4.991c-0.014-2.029-0.008-4.059-0.016-6.089
		c0-0.1-0.039-0.201-0.061-0.301c-20.076-10.439-21.121-34.495,0.074-46.125c0-2.777-0.006-5.63,0.002-8.482
		c0.01-3.355,1.758-5.092,5.107-5.094c5.422-0.006,9.732,2.877,11.803,7.889c0.137,0.331,0.281,0.658,0.439,1.026
		c1.73,0,3.436,0,5.236,0c0.209-0.509,0.412-1.03,0.637-1.542c2.131-4.854,7.199-7.844,12.469-7.358
		c2.514,0.231,4.211,2.003,4.244,4.534c0.041,3.014,0.01,6.029,0.01,9.004c20.051,10.285,21.271,34.515,0.002,46.166
		c0,2.11,0.01,4.287-0.002,6.465c-0.016,3.039-1.805,4.867-4.844,4.896c-3.227,0.029-6.455-0.051-9.68,0.02
		C283,395.56,281.135,394.714,280.051,391.907z M273.457,337.916c0.059-2.388-0.361-4.765-2.189-6.638
		c-1.854-1.898-4.086-2.68-6.814-2.366c0,4.052,0,7.947,0,11.903c-0.508,0.253-0.969,0.48-1.428,0.711
		c-3.619,1.816-6.854,4.134-9.459,7.271c-5.096,6.132-6.076,13.938-2.543,20.688c2.369,4.525,6.016,7.78,10.42,10.248
		c0.986,0.553,1.994,1.064,3.059,1.63c0,3.22,0,6.377,0,9.629c3.734,0,7.346,0,11.164,0c0-2.305,0-4.508,0-6.673
		c3.002,0,5.795,0,8.754,0c0,2.232,0,4.394,0,6.642c3.82,0,7.471,0,11.221,0c0-3.308,0-6.476,0-9.599
		c20.887-9.308,20.377-31.793-0.047-40.646c0-3.869,0-7.804,0-11.815c-1.896-0.228-3.531,0.114-5.055,1.001
		c-3.139,1.83-3.961,4.853-3.975,8.015C282.117,337.916,277.873,337.916,273.457,337.916z"/>
	<path fill-rule="evenodd" clip-rule="evenodd" d="M280.143,357.765c3.723-0.113,7.107,0.85,10.018,3.226
		c5.172,4.224,5.229,11.235,0.145,15.567c-5.342,4.554-15.084,4.586-20.445,0.068c-5.23-4.408-5.131-11.504,0.221-15.766
		C272.795,358.698,275.836,357.763,280.143,357.765z M280.109,359.935c-3.199-0.144-6.117,0.618-8.643,2.59
		c-4.408,3.44-4.371,9.246,0.051,12.662c4.463,3.449,12.32,3.516,16.852,0.144c4.744-3.532,4.729-9.536-0.057-13.036
		C285.869,360.505,283.088,359.812,280.109,359.935z"/>
	<path fill-rule="evenodd" clip-rule="evenodd" d="M286.633,353.319c-0.012,1.205-1.006,2.184-2.186,2.156
		c-1.166-0.028-2.18-1.07-2.168-2.228c0.014-1.179,1.025-2.14,2.232-2.12C285.758,351.147,286.645,352.063,286.633,353.319z"/>
	<path fill-rule="evenodd" clip-rule="evenodd" d="M275.611,355.476c-1.188,0.01-2.154-0.967-2.16-2.181
		c-0.006-1.254,0.889-2.157,2.141-2.159c1.219-0.003,2.201,0.949,2.203,2.139C277.799,354.433,276.771,355.468,275.611,355.476z"/>
	<path fill-rule="evenodd" clip-rule="evenodd" d="M275.549,370.988c-1.242-0.034-2.123-0.966-2.1-2.218
		c0.021-1.209,1.018-2.169,2.205-2.127c1.178,0.041,2.17,1.08,2.146,2.242C277.775,370.06,276.746,371.021,275.549,370.988z"/>
	<path fill-rule="evenodd" clip-rule="evenodd" d="M286.633,368.813c0.006,1.244-0.9,2.164-2.141,2.17
		c-1.205,0.005-2.201-0.96-2.207-2.142c-0.006-1.161,1.014-2.188,2.182-2.196C285.664,366.636,286.625,367.599,286.633,368.813z"/>
</g>
<g opacity="0.1">
	<path fill-rule="evenodd" clip-rule="evenodd" d="M119.949,391.907c-1.145,3.016-3.246,3.686-5.869,3.603
		c-3.016-0.095-6.035-0.011-9.055-0.022c-3.275-0.014-5.033-1.753-5.053-4.991c-0.014-2.029-0.009-4.059-0.016-6.089
		c0-0.1-0.039-0.201-0.061-0.301c-20.076-10.439-21.121-34.495,0.074-46.125c0-2.777-0.007-5.63,0.002-8.482
		c0.01-3.355,1.758-5.092,5.107-5.094c5.421-0.006,9.732,2.877,11.803,7.889c0.137,0.331,0.281,0.658,0.439,1.026
		c1.729,0,3.436,0,5.236,0c0.209-0.509,0.412-1.03,0.637-1.542c2.131-4.854,7.199-7.844,12.469-7.358
		c2.513,0.231,4.211,2.003,4.244,4.534c0.04,3.014,0.01,6.029,0.01,9.004c20.051,10.285,21.271,34.515,0.002,46.166
		c0,2.11,0.01,4.287-0.002,6.465c-0.017,3.039-1.805,4.867-4.844,4.896c-3.227,0.029-6.455-0.051-9.68,0.02
		C122.898,395.56,121.033,394.714,119.949,391.907z M113.355,337.916c0.058-2.388-0.362-4.765-2.19-6.638
		c-1.853-1.898-4.085-2.68-6.813-2.366c0,4.052,0,7.947,0,11.903c-0.508,0.253-0.969,0.48-1.428,0.711
		c-3.619,1.816-6.854,4.134-9.46,7.271c-5.095,6.132-6.075,13.938-2.542,20.688c2.368,4.525,6.016,7.78,10.42,10.248
		c0.986,0.553,1.994,1.064,3.059,1.63c0,3.22,0,6.377,0,9.629c3.734,0,7.346,0,11.164,0c0-2.305,0-4.508,0-6.673
		c3.001,0,5.794,0,8.753,0c0,2.232,0,4.394,0,6.642c3.82,0,7.472,0,11.221,0c0-3.308,0-6.476,0-9.599
		c20.888-9.308,20.378-31.793-0.046-40.646c0-3.869,0-7.804,0-11.815c-1.897-0.228-3.531,0.114-5.055,1.001
		c-3.14,1.83-3.962,4.853-3.975,8.015C122.014,337.916,117.771,337.916,113.355,337.916z"/>
	<path fill-rule="evenodd" clip-rule="evenodd" d="M120.041,357.765c3.722-0.113,7.107,0.85,10.017,3.226
		c5.173,4.224,5.229,11.235,0.146,15.567c-5.342,4.554-15.084,4.586-20.445,0.068c-5.23-4.408-5.131-11.504,0.22-15.766
		C112.693,358.698,115.734,357.763,120.041,357.765z M120.007,359.935c-3.199-0.144-6.117,0.618-8.644,2.59
		c-4.407,3.44-4.37,9.246,0.052,12.662c4.463,3.449,12.32,3.516,16.851,0.144c4.745-3.532,4.729-9.536-0.056-13.036
		C125.766,360.505,122.986,359.812,120.007,359.935z"/>
	<path fill-rule="evenodd" clip-rule="evenodd" d="M126.53,353.319c-0.012,1.205-1.005,2.184-2.186,2.156
		c-1.165-0.028-2.179-1.07-2.167-2.228c0.014-1.179,1.025-2.14,2.232-2.12C125.656,351.147,126.542,352.063,126.53,353.319z"/>
	<path fill-rule="evenodd" clip-rule="evenodd" d="M115.508,355.476c-1.188,0.01-2.153-0.967-2.159-2.181
		c-0.006-1.254,0.889-2.157,2.141-2.159c1.219-0.003,2.2,0.949,2.203,2.139C117.697,354.433,116.669,355.468,115.508,355.476z"/>
	<path fill-rule="evenodd" clip-rule="evenodd" d="M115.447,370.988c-1.242-0.034-2.123-0.966-2.1-2.218
		c0.021-1.209,1.018-2.169,2.205-2.127c1.177,0.041,2.17,1.08,2.146,2.242C117.673,370.06,116.644,371.021,115.447,370.988z"/>
	<path fill-rule="evenodd" clip-rule="evenodd" d="M126.531,368.813c0.006,1.244-0.901,2.164-2.141,2.17
		c-1.206,0.005-2.201-0.96-2.207-2.142c-0.006-1.161,1.014-2.188,2.182-2.196C125.562,366.636,126.523,367.599,126.531,368.813z"/>
</g>
<g opacity="0.1">
	<path fill-rule="evenodd" clip-rule="evenodd" d="M440.018,391.907c-1.145,3.016-3.246,3.686-5.869,3.603
		c-3.016-0.095-6.035-0.011-9.055-0.022c-3.275-0.014-5.033-1.753-5.053-4.991c-0.014-2.029-0.008-4.059-0.016-6.089
		c0-0.1-0.039-0.201-0.061-0.301c-20.076-10.439-21.121-34.495,0.074-46.125c0-2.777-0.006-5.63,0.002-8.482
		c0.01-3.355,1.758-5.092,5.107-5.094c5.422-0.006,9.732,2.877,11.803,7.889c0.137,0.331,0.281,0.658,0.439,1.026
		c1.73,0,3.436,0,5.236,0c0.209-0.509,0.412-1.03,0.637-1.542c2.131-4.854,7.199-7.844,12.469-7.358
		c2.514,0.231,4.211,2.003,4.244,4.534c0.041,3.014,0.01,6.029,0.01,9.004c20.051,10.285,21.271,34.515,0.002,46.166
		c0,2.11,0.01,4.287-0.002,6.465c-0.016,3.039-1.805,4.867-4.844,4.896c-3.227,0.029-6.455-0.051-9.68,0.02
		C442.967,395.56,441.102,394.714,440.018,391.907z M433.424,337.916c0.059-2.388-0.361-4.765-2.189-6.638
		c-1.854-1.898-4.086-2.68-6.814-2.366c0,4.052,0,7.947,0,11.903c-0.508,0.253-0.969,0.48-1.428,0.711
		c-3.619,1.816-6.854,4.134-9.459,7.271c-5.096,6.132-6.076,13.938-2.543,20.688c2.369,4.525,6.016,7.78,10.42,10.248
		c0.986,0.553,1.994,1.064,3.059,1.63c0,3.22,0,6.377,0,9.629c3.734,0,7.346,0,11.164,0c0-2.305,0-4.508,0-6.673
		c3.002,0,5.795,0,8.754,0c0,2.232,0,4.394,0,6.642c3.82,0,7.471,0,11.221,0c0-3.308,0-6.476,0-9.599
		c20.887-9.308,20.377-31.793-0.047-40.646c0-3.869,0-7.804,0-11.815c-1.896-0.228-3.531,0.114-5.055,1.001
		c-3.139,1.83-3.961,4.853-3.975,8.015C442.084,337.916,437.84,337.916,433.424,337.916z"/>
	<path fill-rule="evenodd" clip-rule="evenodd" d="M440.109,357.765c3.723-0.113,7.107,0.85,10.018,3.226
		c5.172,4.224,5.229,11.235,0.145,15.567c-5.342,4.554-15.084,4.586-20.445,0.068c-5.23-4.408-5.131-11.504,0.221-15.766
		C432.762,358.698,435.803,357.763,440.109,357.765z M440.076,359.935c-3.199-0.144-6.117,0.618-8.643,2.59
		c-4.408,3.44-4.371,9.246,0.051,12.662c4.463,3.449,12.32,3.516,16.852,0.144c4.744-3.532,4.729-9.536-0.057-13.036
		C445.836,360.505,443.055,359.812,440.076,359.935z"/>
	<path fill-rule="evenodd" clip-rule="evenodd" d="M446.6,353.319c-0.012,1.205-1.006,2.184-2.186,2.156
		c-1.166-0.028-2.18-1.07-2.168-2.228c0.014-1.179,1.025-2.14,2.232-2.12C445.725,351.147,446.611,352.063,446.6,353.319z"/>
	<path fill-rule="evenodd" clip-rule="evenodd" d="M435.578,355.476c-1.188,0.01-2.154-0.967-2.16-2.181
		c-0.006-1.254,0.889-2.157,2.141-2.159c1.219-0.003,2.201,0.949,2.203,2.139C437.766,354.433,436.738,355.468,435.578,355.476z"/>
	<path fill-rule="evenodd" clip-rule="evenodd" d="M435.516,370.988c-1.242-0.034-2.123-0.966-2.1-2.218
		c0.021-1.209,1.018-2.169,2.205-2.127c1.178,0.041,2.17,1.08,2.146,2.242C437.742,370.06,436.713,371.021,435.516,370.988z"/>
	<path fill-rule="evenodd" clip-rule="evenodd" d="M446.6,368.813c0.006,1.244-0.9,2.164-2.141,2.17
		c-1.205,0.005-2.201-0.96-2.207-2.142c-0.006-1.161,1.014-2.188,2.182-2.196C445.631,366.636,446.592,367.599,446.6,368.813z"/>
</g>
<g opacity="0.1">
	<path fill-rule="evenodd" clip-rule="evenodd" d="M200.15,471.946c-1.145,3.017-3.246,3.686-5.869,3.604
		c-3.016-0.096-6.035-0.012-9.055-0.023c-3.275-0.013-5.033-1.752-5.053-4.99c-0.014-2.029-0.009-4.059-0.016-6.089
		c0-0.101-0.039-0.201-0.061-0.302c-20.076-10.439-21.121-34.494,0.074-46.125c0-2.776-0.007-5.629,0.002-8.482
		c0.01-3.355,1.758-5.091,5.107-5.094c5.421-0.005,9.732,2.877,11.803,7.889c0.137,0.332,0.281,0.659,0.439,1.027
		c1.729,0,3.436,0,5.236,0c0.209-0.509,0.412-1.03,0.637-1.542c2.131-4.854,7.199-7.845,12.469-7.358
		c2.513,0.23,4.211,2.002,4.244,4.533c0.04,3.014,0.01,6.029,0.01,9.004c20.051,10.285,21.272,34.516,0.002,46.166
		c0,2.111,0.01,4.288-0.002,6.465c-0.017,3.04-1.805,4.867-4.844,4.896c-3.227,0.03-6.455-0.051-9.68,0.02
		C203.099,475.599,201.234,474.753,200.15,471.946z M193.556,417.956c0.058-2.389-0.362-4.766-2.19-6.638
		c-1.853-1.898-4.085-2.681-6.813-2.366c0,4.051,0,7.947,0,11.902c-0.508,0.254-0.969,0.48-1.428,0.711
		c-3.619,1.817-6.854,4.135-9.46,7.271c-5.095,6.131-6.075,13.938-2.542,20.688c2.368,4.525,6.016,7.781,10.42,10.248
		c0.986,0.553,1.994,1.064,3.059,1.631c0,3.219,0,6.377,0,9.629c3.734,0,7.346,0,11.164,0c0-2.305,0-4.508,0-6.674
		c3.001,0,5.794,0,8.753,0c0,2.232,0,4.395,0,6.643c3.82,0,7.472,0,11.221,0c0-3.309,0-6.477,0-9.599
		c20.888-9.308,20.378-31.793-0.046-40.647c0-3.869,0-7.803,0-11.814c-1.897-0.228-3.531,0.113-5.055,1
		c-3.14,1.83-3.962,4.854-3.975,8.016C202.215,417.956,197.972,417.956,193.556,417.956z"/>
	<path fill-rule="evenodd" clip-rule="evenodd" d="M200.242,437.805c3.722-0.114,7.107,0.85,10.017,3.226
		c5.173,4.223,5.229,11.234,0.146,15.566c-5.342,4.555-15.084,4.586-20.445,0.068c-5.23-4.407-5.131-11.503,0.22-15.766
		C192.894,438.737,195.935,437.802,200.242,437.805z M200.208,439.974c-3.199-0.143-6.117,0.619-8.644,2.59
		c-4.407,3.441-4.37,9.247,0.052,12.663c4.463,3.449,12.32,3.516,16.851,0.144c4.745-3.533,4.729-9.537-0.056-13.037
		C205.967,440.545,203.187,439.851,200.208,439.974z"/>
	<path fill-rule="evenodd" clip-rule="evenodd" d="M206.731,433.359c-0.012,1.204-1.005,2.184-2.186,2.155
		c-1.165-0.027-2.179-1.07-2.167-2.227c0.014-1.179,1.025-2.14,2.232-2.121C205.857,431.187,206.744,432.103,206.731,433.359z"/>
	<path fill-rule="evenodd" clip-rule="evenodd" d="M195.709,435.516c-1.188,0.009-2.153-0.967-2.159-2.181
		c-0.006-1.254,0.889-2.157,2.141-2.16c1.219-0.002,2.2,0.95,2.203,2.139C197.898,434.472,196.871,435.507,195.709,435.516z"/>
	<path fill-rule="evenodd" clip-rule="evenodd" d="M195.648,451.028c-1.242-0.035-2.123-0.966-2.1-2.219
		c0.021-1.209,1.018-2.168,2.205-2.127c1.177,0.042,2.17,1.08,2.146,2.243C197.875,450.099,196.845,451.061,195.648,451.028z"/>
	<path fill-rule="evenodd" clip-rule="evenodd" d="M206.732,448.854c0.006,1.243-0.901,2.164-2.141,2.169
		c-1.206,0.006-2.201-0.959-2.207-2.141c-0.006-1.162,1.014-2.188,2.182-2.197C205.763,446.675,206.724,447.638,206.732,448.854z"/>
</g>
<g opacity="0.1">
	<path fill-rule="evenodd" clip-rule="evenodd" d="M40.047,471.946c-1.145,3.017-3.246,3.686-5.869,3.604
		c-3.016-0.096-6.035-0.012-9.055-0.023c-3.275-0.013-5.033-1.752-5.053-4.99c-0.014-2.029-0.009-4.059-0.016-6.089
		c0-0.101-0.039-0.201-0.061-0.302c-20.076-10.439-21.121-34.494,0.074-46.125c0-2.776-0.007-5.629,0.002-8.482
		c0.01-3.355,1.758-5.091,5.107-5.094c5.421-0.005,9.732,2.877,11.803,7.889c0.137,0.332,0.281,0.659,0.439,1.027
		c1.729,0,3.436,0,5.236,0c0.209-0.509,0.412-1.03,0.637-1.542c2.131-4.854,7.199-7.845,12.469-7.358
		c2.513,0.23,4.211,2.002,4.244,4.533c0.04,3.014,0.01,6.029,0.01,9.004c20.051,10.285,21.271,34.516,0.002,46.166
		c0,2.111,0.01,4.288-0.002,6.465c-0.017,3.04-1.805,4.867-4.844,4.896c-3.227,0.03-6.455-0.051-9.68,0.02
		C42.997,475.599,41.131,474.753,40.047,471.946z M33.454,417.956c0.058-2.389-0.362-4.766-2.19-6.638
		c-1.853-1.898-4.085-2.681-6.813-2.366c0,4.051,0,7.947,0,11.902c-0.508,0.254-0.969,0.48-1.428,0.711
		c-3.619,1.817-6.854,4.135-9.46,7.271c-5.095,6.131-6.075,13.938-2.542,20.688c2.368,4.525,6.016,7.781,10.42,10.248
		c0.986,0.553,1.994,1.064,3.059,1.631c0,3.219,0,6.377,0,9.629c3.734,0,7.346,0,11.164,0c0-2.305,0-4.508,0-6.674
		c3.001,0,5.794,0,8.753,0c0,2.232,0,4.395,0,6.643c3.82,0,7.472,0,11.221,0c0-3.309,0-6.477,0-9.599
		c20.888-9.308,20.378-31.793-0.046-40.647c0-3.869,0-7.803,0-11.814c-1.897-0.228-3.531,0.113-5.055,1
		c-3.14,1.83-3.962,4.854-3.975,8.016C42.113,417.956,37.87,417.956,33.454,417.956z"/>
	<path fill-rule="evenodd" clip-rule="evenodd" d="M40.139,437.805c3.722-0.114,7.107,0.85,10.017,3.226
		c5.173,4.223,5.229,11.234,0.146,15.566c-5.342,4.555-15.084,4.586-20.445,0.068c-5.23-4.407-5.131-11.503,0.22-15.766
		C32.792,438.737,35.833,437.802,40.139,437.805z M40.106,439.974c-3.199-0.143-6.117,0.619-8.644,2.59
		c-4.407,3.441-4.37,9.247,0.052,12.663c4.463,3.449,12.32,3.516,16.851,0.144c4.745-3.533,4.729-9.537-0.056-13.037
		C45.865,440.545,43.084,439.851,40.106,439.974z"/>
	<path fill-rule="evenodd" clip-rule="evenodd" d="M46.628,433.359c-0.012,1.204-1.005,2.184-2.186,2.155
		c-1.165-0.027-2.179-1.07-2.167-2.227c0.014-1.179,1.025-2.14,2.232-2.121C45.754,431.187,46.641,432.103,46.628,433.359z"/>
	<path fill-rule="evenodd" clip-rule="evenodd" d="M35.607,435.516c-1.188,0.009-2.153-0.967-2.159-2.181
		c-0.006-1.254,0.889-2.157,2.141-2.16c1.219-0.002,2.2,0.95,2.203,2.139C37.795,434.472,36.768,435.507,35.607,435.516z"/>
	<path fill-rule="evenodd" clip-rule="evenodd" d="M35.545,451.028c-1.242-0.035-2.123-0.966-2.1-2.219
		c0.021-1.209,1.018-2.168,2.205-2.127c1.177,0.042,2.17,1.08,2.146,2.243C37.772,450.099,36.743,451.061,35.545,451.028z"/>
	<path fill-rule="evenodd" clip-rule="evenodd" d="M46.629,448.854c0.006,1.243-0.901,2.164-2.141,2.169
		c-1.206,0.006-2.201-0.959-2.207-2.141c-0.006-1.162,1.014-2.188,2.182-2.197C45.661,446.675,46.622,447.638,46.629,448.854z"/>
</g>
<g opacity="0.1">
	<path fill-rule="evenodd" clip-rule="evenodd" d="M360.117,471.946c-1.145,3.017-3.246,3.686-5.869,3.604
		c-3.016-0.096-6.035-0.012-9.055-0.023c-3.275-0.013-5.033-1.752-5.053-4.99c-0.014-2.029-0.01-4.059-0.016-6.089
		c0-0.101-0.039-0.201-0.061-0.302c-20.076-10.439-21.121-34.494,0.074-46.125c0-2.776-0.008-5.629,0.002-8.482
		c0.01-3.355,1.758-5.091,5.107-5.094c5.42-0.005,9.732,2.877,11.803,7.889c0.137,0.332,0.281,0.659,0.439,1.027
		c1.729,0,3.436,0,5.236,0c0.209-0.509,0.412-1.03,0.637-1.542c2.131-4.854,7.199-7.845,12.469-7.358
		c2.512,0.23,4.211,2.002,4.244,4.533c0.039,3.014,0.01,6.029,0.01,9.004c20.051,10.285,21.271,34.516,0.002,46.166
		c0,2.111,0.01,4.288-0.002,6.465c-0.018,3.04-1.805,4.867-4.844,4.896c-3.227,0.03-6.455-0.051-9.68,0.02
		C363.066,475.599,361.201,474.753,360.117,471.946z M353.523,417.956c0.057-2.389-0.363-4.766-2.191-6.638
		c-1.852-1.898-4.084-2.681-6.812-2.366c0,4.051,0,7.947,0,11.902c-0.508,0.254-0.969,0.48-1.428,0.711
		c-3.619,1.817-6.854,4.135-9.461,7.271c-5.094,6.131-6.074,13.938-2.541,20.688c2.367,4.525,6.016,7.781,10.42,10.248
		c0.986,0.553,1.994,1.064,3.059,1.631c0,3.219,0,6.377,0,9.629c3.734,0,7.346,0,11.164,0c0-2.305,0-4.508,0-6.674
		c3,0,5.793,0,8.752,0c0,2.232,0,4.395,0,6.643c3.82,0,7.473,0,11.221,0c0-3.309,0-6.477,0-9.599
		c20.889-9.308,20.379-31.793-0.045-40.647c0-3.869,0-7.803,0-11.814c-1.898-0.228-3.531,0.113-5.055,1
		c-3.141,1.83-3.963,4.854-3.975,8.016C362.182,417.956,357.939,417.956,353.523,417.956z"/>
	<path fill-rule="evenodd" clip-rule="evenodd" d="M360.209,437.805c3.721-0.114,7.107,0.85,10.016,3.226
		c5.174,4.223,5.229,11.234,0.146,15.566c-5.342,4.555-15.084,4.586-20.445,0.068c-5.23-4.407-5.131-11.503,0.219-15.766
		C352.861,438.737,355.902,437.802,360.209,437.805z M360.176,439.974c-3.199-0.143-6.117,0.619-8.645,2.59
		c-4.406,3.441-4.369,9.247,0.053,12.663c4.463,3.449,12.32,3.516,16.85,0.144c4.746-3.533,4.73-9.537-0.055-13.037
		C365.934,440.545,363.154,439.851,360.176,439.974z"/>
	<path fill-rule="evenodd" clip-rule="evenodd" d="M366.697,433.359c-0.012,1.204-1.004,2.184-2.186,2.155
		c-1.164-0.027-2.178-1.07-2.166-2.227c0.014-1.179,1.025-2.14,2.232-2.121C365.824,431.187,366.711,432.103,366.697,433.359z"/>
	<path fill-rule="evenodd" clip-rule="evenodd" d="M355.676,435.516c-1.188,0.009-2.152-0.967-2.158-2.181
		c-0.006-1.254,0.889-2.157,2.141-2.16c1.219-0.002,2.199,0.95,2.203,2.139C357.865,434.472,356.838,435.507,355.676,435.516z"/>
	<path fill-rule="evenodd" clip-rule="evenodd" d="M355.615,451.028c-1.242-0.035-2.123-0.966-2.1-2.219
		c0.021-1.209,1.018-2.168,2.205-2.127c1.176,0.042,2.17,1.08,2.145,2.243C357.842,450.099,356.812,451.061,355.615,451.028z"/>
	<path fill-rule="evenodd" clip-rule="evenodd" d="M366.699,448.854c0.006,1.243-0.902,2.164-2.141,2.169
		c-1.207,0.006-2.201-0.959-2.207-2.141c-0.006-1.162,1.014-2.188,2.182-2.197C365.73,446.675,366.691,447.638,366.699,448.854z"/>
</g>
</svg>
